<svg width="72" height="44" viewBox="0 0 72 44" fill="none" xmlns="http://www.w3.org/2000/svg">
<path d="M4.76331 0.546388C4.25039 0.341635 3.66859 0.591458 3.46384 1.10439L0.12718 9.46302C-0.077574 9.97594 0.17225 10.5577 0.685177 10.7625C1.1981 10.9672 1.7799 10.7174 1.98465 10.2045L4.95057 2.7746L12.3805 5.74052C12.8934 5.94527 13.4752 5.69545 13.6799 5.18252C13.8847 4.6696 13.6349 4.0878 13.1219 3.88305L4.76331 0.546388ZM70.9498 41.5014C70.3149 41.5331 69.6831 41.5587 69.0544 41.5782L69.1163 43.5772C69.7579 43.5574 70.4023 43.5312 71.0497 43.4989L70.9498 41.5014ZM65.275 41.6204C64.001 41.6088 62.7405 41.5705 61.4939 41.505L61.3891 43.5023C62.6653 43.5693 63.9546 43.6085 65.2568 43.6203L65.275 41.6204ZM57.7316 41.2207C56.4675 41.0952 55.2186 40.94 53.9855 40.7548L53.6885 42.7327C54.9555 42.9229 56.2375 43.0822 57.534 43.2109L57.7316 41.2207ZM50.2761 40.0971C49.0366 39.8425 47.8142 39.5555 46.6091 39.2356L46.0959 41.1687C47.3385 41.4985 48.598 41.7942 49.8738 42.0562L50.2761 40.0971ZM43.0046 38.1629C41.8089 37.7672 40.6317 37.3366 39.4733 36.8705L38.7268 38.7259C39.9247 39.2079 41.1414 39.653 42.3763 40.0616L43.0046 38.1629ZM36.0359 35.3561C34.9066 34.8137 33.7967 34.2346 32.7066 33.6184L31.7223 35.3594C32.8515 35.9978 34.0009 36.5974 35.17 37.1589L36.0359 35.3561ZM29.5023 31.6614C28.4609 30.976 27.4392 30.2534 26.4376 29.4929L25.2281 31.0858C26.2655 31.8734 27.3239 32.622 28.4028 33.332L29.5023 31.6614ZM23.5236 27.1234C22.5861 26.3082 21.6679 25.4563 20.7695 24.5672L19.3627 25.9887C20.2914 26.9078 21.241 27.789 22.2112 28.6326L23.5236 27.1234ZM18.1809 21.84C17.3555 20.915 16.5486 19.955 15.7606 18.9595L14.1924 20.2008C15.0045 21.2267 15.8367 22.2168 16.6886 23.1716L18.1809 21.84ZM13.5051 15.939C12.7919 14.9269 12.0961 13.8823 11.418 12.8046L9.72521 13.8697C10.4215 14.9763 11.1366 16.0499 11.8702 17.091L13.5051 15.939ZM9.48618 9.55952C8.87728 8.47822 8.28449 7.36692 7.70811 6.22523L5.92273 7.12657C6.51243 8.29464 7.11943 9.43264 7.74349 10.5409L9.48618 9.55952ZM6.07849 2.81917C5.819 2.24663 5.56331 1.66711 5.31144 1.08056L3.47371 1.86969C3.73075 2.46831 3.99181 3.05999 4.25685 3.64478L6.07849 2.81917Z" fill="#DEDEDE"/>
</svg>
