<svg width="47" height="45" viewBox="0 0 47 45" fill="none" xmlns="http://www.w3.org/2000/svg">
<path d="M44.4631 0.81141C44.3589 0.555663 44.0672 0.432773 43.8114 0.536927L39.6438 2.23421C39.388 2.33836 39.2651 2.63012 39.3693 2.88587C39.4734 3.14161 39.7652 3.26451 40.0209 3.16035L43.7255 1.65166L45.2342 5.35623C45.3384 5.61197 45.6301 5.73486 45.8859 5.63071C46.1416 5.52656 46.2645 5.2348 46.1604 4.97905L44.4631 0.81141ZM1.21088 44.4534C13.3226 38.8196 21.781 33.6241 28.3926 27.0119C35.0074 20.3966 39.7435 12.3936 44.4608 1.19409L43.5392 0.805908C38.8485 11.9423 34.174 19.8159 27.6855 26.3048C21.1939 32.797 12.8563 37.9336 0.789121 43.5466L1.21088 44.4534Z" fill="black"/>
</svg>
