<svg width="24" height="24" viewBox="0 0 24 24" fill="none" xmlns="http://www.w3.org/2000/svg">
<path d="M23.953 13.8931C23.953 14.9244 23.5858 15.8033 22.8514 16.5298C22.1171 17.2564 21.2342 17.6197 20.203 17.6197H18.7264C18.5077 17.6197 18.328 17.5494 18.1874 17.4088C18.0467 17.2681 17.9764 17.0884 17.9764 16.8697C17.9764 16.8228 17.9803 16.7798 17.9881 16.7408C17.9959 16.7017 18.0077 16.6627 18.0233 16.6236C18.0389 16.5845 18.0584 16.5455 18.0819 16.5064C18.1053 16.4673 18.1288 16.4322 18.1522 16.4009C18.1756 16.3697 18.203 16.3384 18.2342 16.3072C18.2655 16.2759 18.3006 16.2525 18.3397 16.2369L18.4569 16.19L18.5858 16.1548L18.7264 16.1431H20.203C20.6092 16.1431 20.9842 16.0416 21.328 15.8384C21.6717 15.6353 21.9452 15.3619 22.1483 15.0181C22.3514 14.6744 22.453 14.2994 22.453 13.8931C22.453 13.6431 22.4139 13.4048 22.3358 13.1783C22.2577 12.9517 22.1522 12.7486 22.0194 12.5689C21.8866 12.3892 21.7264 12.229 21.5389 12.0884C21.3514 11.9478 21.1444 11.8384 20.9178 11.7603C20.6913 11.6822 20.453 11.6431 20.203 11.6431C19.8905 11.6431 19.5897 11.5806 19.3006 11.4556C19.0116 11.3306 18.7655 11.1587 18.5624 10.94C18.3592 10.7212 18.203 10.4634 18.0936 10.1665V10.1431C17.8905 9.61184 17.6014 9.12746 17.2264 8.68996C16.8514 8.25245 16.4022 7.9048 15.8787 7.64698C15.3553 7.38917 14.7967 7.23682 14.203 7.18995C14.0623 7.18995 13.9412 7.22511 13.8397 7.29542C13.7381 7.36573 13.6561 7.45558 13.5936 7.56495C13.5311 7.67433 13.4998 7.79151 13.4998 7.91652V16.8697C13.4998 16.9791 13.4803 17.0767 13.4412 17.1627C13.4022 17.2486 13.3475 17.3267 13.2772 17.397C13.2069 17.4673 13.1248 17.522 13.0311 17.5611C12.9373 17.6002 12.8436 17.6197 12.7498 17.6197C12.5467 17.6197 12.3709 17.5455 12.2225 17.397C12.074 17.2486 11.9998 17.0728 11.9998 16.8697V7.91652C11.9998 7.68214 12.0389 7.45167 12.117 7.22511C12.1951 6.99854 12.3006 6.79542 12.4334 6.61573C12.5662 6.43604 12.7225 6.27588 12.9022 6.13526C13.0819 5.99463 13.285 5.88525 13.5115 5.80713C13.7381 5.729 13.9764 5.68994 14.2264 5.68994C15.4295 5.75244 16.5077 6.14698 17.4608 6.87354C18.4139 7.60011 19.0858 8.51808 19.4764 9.62746L19.4999 9.6509C19.6092 9.99465 19.8436 10.1665 20.203 10.1665H20.3671C21.3671 10.1978 22.2147 10.5767 22.91 11.3033C23.6053 12.0298 23.953 12.8931 23.953 13.8931ZM9.76153 17.6197C9.55059 17.6197 9.3748 17.5494 9.23418 17.4088C9.09355 17.2681 9.02324 17.0884 9.02324 16.8697V8.66652C9.02324 8.46339 9.09355 8.28761 9.23418 8.13917C9.3748 7.99073 9.55059 7.91652 9.76153 7.91652C9.97246 7.91652 10.1482 7.99073 10.2889 8.13917C10.4295 8.28761 10.4998 8.46339 10.4998 8.66652V16.8697C10.4998 17.0728 10.4295 17.2486 10.2889 17.397C10.1482 17.5455 9.97246 17.6197 9.76153 17.6197ZM6.77323 17.6197C6.5701 17.6197 6.39432 17.5494 6.24588 17.4088C6.09744 17.2681 6.02322 17.0884 6.02322 16.8697V8.29152C6.02322 8.08839 6.09744 7.91261 6.24588 7.76417C6.39432 7.61573 6.5701 7.54151 6.77323 7.54151C6.89823 7.54151 7.01932 7.57276 7.13651 7.63526C7.2537 7.69776 7.34745 7.78761 7.41776 7.9048C7.48808 8.02198 7.52323 8.15089 7.52323 8.29152V16.8697C7.52323 17.0728 7.44901 17.2486 7.30058 17.397C7.15214 17.5455 6.97635 17.6197 6.77323 17.6197ZM3.77321 17.6197C3.69509 17.6197 3.61696 17.608 3.53884 17.5845C3.46071 17.5611 3.3943 17.5259 3.33962 17.4791C3.28493 17.4322 3.23415 17.3775 3.18727 17.315C3.1404 17.2525 3.10524 17.1861 3.0818 17.1158C3.05837 17.0455 3.04665 16.9634 3.04665 16.8697V10.8931C3.04665 10.8306 3.05446 10.7681 3.07008 10.7056C3.08571 10.6431 3.10915 10.5845 3.1404 10.5298C3.17165 10.4751 3.21071 10.4243 3.25759 10.3775C3.30446 10.3306 3.35524 10.2915 3.40993 10.2603C3.46462 10.229 3.52321 10.2056 3.58571 10.19C3.64821 10.1743 3.71071 10.1665 3.77321 10.1665C3.99196 10.1665 4.17165 10.2368 4.31228 10.3775C4.4529 10.5181 4.52322 10.69 4.52322 10.8931V16.8697C4.52322 17.0728 4.4529 17.2486 4.31228 17.397C4.17165 17.5455 3.99196 17.6197 3.77321 17.6197ZM0.796635 16.1197C0.593509 16.1197 0.417727 16.0494 0.269288 15.9087C0.12085 15.7681 0.0466309 15.5962 0.0466309 15.3931V12.3931C0.0466309 12.19 0.12085 12.0142 0.269288 11.8658C0.417727 11.7173 0.593509 11.6431 0.796635 11.6431C0.937261 11.6431 1.06226 11.6783 1.17164 11.7486C1.28101 11.8189 1.37086 11.9126 1.44117 12.0298C1.51148 12.147 1.54664 12.2681 1.54664 12.3931V15.3931C1.54664 15.5962 1.47242 15.7681 1.32398 15.9087C1.17554 16.0494 0.999761 16.1197 0.796635 16.1197ZM15.7264 16.1197C15.9295 16.1197 16.1053 16.1939 16.2537 16.3423C16.4022 16.4908 16.4764 16.6666 16.4764 16.8697C16.4764 17.0728 16.4022 17.2486 16.2537 17.397C16.1053 17.5455 15.9295 17.6197 15.7264 17.6197C15.6014 17.6197 15.4803 17.5845 15.3631 17.5142C15.2459 17.4439 15.1522 17.3541 15.0819 17.2447C15.0116 17.1353 14.9764 17.0142 14.9764 16.8814C14.9764 16.7486 15.0116 16.6236 15.0819 16.5064C15.1522 16.3892 15.2459 16.2955 15.3631 16.2252C15.4803 16.1548 15.6014 16.1197 15.7264 16.1197Z" fill="black"/>
</svg>
