<svg width="22" height="46" viewBox="0 0 22 46" fill="none" xmlns="http://www.w3.org/2000/svg">
<path d="M3.23701 0.559765C2.99388 0.428842 2.69065 0.519808 2.55973 0.762945L0.426243 4.72504C0.295322 4.96818 0.386289 5.27141 0.629424 5.40233C0.872558 5.53326 1.17579 5.44229 1.30671 5.19915L3.20314 1.67729L6.72501 3.57371C6.96814 3.70463 7.27137 3.61367 7.4023 3.37053C7.53322 3.1274 7.44225 2.82417 7.19912 2.69325L3.23701 0.559765ZM21.4252 44.737C11.3265 28.41 8.7677 18.4863 3.47887 0.856327L2.52105 1.14367C7.80741 18.7654 10.3978 28.8094 20.5747 45.263L21.4252 44.737Z" fill="black"/>
</svg>
