<svg width="32" height="32" viewBox="0 0 32 32" fill="none" xmlns="http://www.w3.org/2000/svg">
<style>
    path {
      fill: #000;
    }
    @media (prefers-color-scheme: dark) {
      path {
          fill: #fff;
      }
    }
  </style>
<g clip-path="url(#clip0)">
<path d="M14.782 14.1707V9.70094L17.5415 6.87859C18.545 5.86969 18.7331 4.26057 18.0307 3.00903C17.763 2.52312 17.3735 2.11818 16.9019 1.8355C16.4304 1.55283 15.8936 1.40252 15.3464 1.3999C15.083 1.3999 14.782 1.43821 14.5436 1.51484C13.189 1.88519 12.2733 3.16228 12.2733 4.59261V8.73035L8.33467 12.7787C7.31227 13.8408 6.61867 15.1851 6.33994 16.6449C6.06121 18.1047 6.20962 19.6157 6.76675 20.9903C7.73259 23.4168 9.83988 25.0898 12.2733 25.524V26.303C12.2733 26.635 11.9848 26.9415 11.6461 26.9415H9.76462V29.4957H11.6461C13.3395 29.4957 14.782 28.0782 14.782 26.303V25.6645C17.3283 25.6645 20 23.2125 20 19.5983C20 16.661 17.5917 14.1707 14.782 14.1707ZM14.782 4.59261C14.782 4.29888 14.9199 4.069 15.1834 3.99238C15.4593 3.91575 15.7478 4.03069 15.8858 4.28611C15.9567 4.40877 15.9854 4.55205 15.9672 4.69319C15.949 4.83434 15.8851 4.96525 15.7854 5.06513L14.782 6.16342V4.59261ZM12.2733 14.8093C11.0566 15.6266 10.1409 17.0314 9.81479 18.334L12.2733 18.9981V22.8932C11.5542 22.6968 10.8892 22.3343 10.3301 21.8337C9.77103 21.3331 9.33285 20.708 9.04964 20.007C8.30958 18.1425 8.71097 16.0225 10.0907 14.5922L12.2733 12.2551V14.8093ZM14.782 23.1103V16.6483C16.2495 16.6483 17.5164 18.0531 17.5164 19.5983C17.5164 21.8332 15.9234 23.1103 14.782 23.1103Z" fill="black"/>
<path d="M6.03437 26.7125C5.39121 26.4098 4.74805 25.9873 4.10489 25.445C3.47433 24.9028 2.90053 24.2596 2.38348 23.5156C1.87904 22.7589 1.46918 21.9077 1.15391 20.9618C0.838633 20.0034 0.680995 18.9693 0.680995 17.8595C0.680995 16.7497 0.838633 15.722 1.15391 14.7761C1.46918 13.8177 1.87904 12.9664 2.38348 12.2224C2.90053 11.4657 3.47433 10.8163 4.10489 10.274C4.74805 9.73172 5.39121 9.30925 6.03437 9.00659L6.7532 10.0092C6.24876 10.3875 5.80737 10.8415 5.42904 11.3712C5.05071 11.9008 4.73544 12.4809 4.48322 13.1115C4.231 13.7294 4.04183 14.3852 3.91572 15.0788C3.78961 15.7724 3.72656 16.466 3.72656 17.1596V18.5594C3.72656 19.253 3.78961 19.9466 3.91572 20.6402C4.04183 21.3339 4.231 21.9959 4.48322 22.6265C4.73544 23.2444 5.05071 23.8182 5.42904 24.3479C5.80737 24.8775 6.24876 25.3315 6.7532 25.7099L6.03437 26.7125ZM19.8762 25.7099C20.3807 25.3315 20.8221 24.8775 21.2004 24.3479C21.5787 23.8182 21.894 23.2444 22.1462 22.6265C22.3984 21.9959 22.5876 21.3339 22.7137 20.6402C22.8398 19.9466 22.9029 19.253 22.9029 18.5594V17.1596C22.9029 16.466 22.8398 15.7724 22.7137 15.0788C22.5876 14.3852 22.3984 13.7294 22.1462 13.1115C21.894 12.4809 21.5787 11.9008 21.2004 11.3712C20.8221 10.8415 20.3807 10.3875 19.8762 10.0092L20.5951 9.00659C21.2382 9.30925 21.8751 9.73172 22.5056 10.274C23.1488 10.8163 23.7226 11.4657 24.227 12.2224C24.7441 12.9664 25.1603 13.8177 25.4755 14.7761C25.7908 15.722 25.9484 16.7497 25.9484 17.8595C25.9484 18.9693 25.7908 20.0034 25.4755 20.9618C25.1603 21.9077 24.7441 22.7589 24.227 23.5156C23.7226 24.2596 23.1488 24.9028 22.5056 25.445C21.8751 25.9873 21.2382 26.4098 20.5951 26.7125L19.8762 25.7099ZM27.395 26.5233C27.9246 26.0819 28.3597 25.6657 28.7002 25.2748C29.0407 24.8839 29.2866 24.4551 29.438 23.9885H29.4001C28.984 23.9885 28.6119 23.8434 28.284 23.5534C27.9688 23.2633 27.8111 22.8598 27.8111 22.3427V22.2671C27.8111 21.8131 27.9562 21.4284 28.2462 21.1132C28.5363 20.7853 28.9587 20.6213 29.5136 20.6213C30.0685 20.6213 30.491 20.7853 30.781 21.1132C31.0711 21.4284 31.2161 21.8131 31.2161 22.2671V22.5508C31.2161 22.9291 31.1594 23.3075 31.0459 23.6858C30.9324 24.0515 30.781 24.4046 30.5919 24.7451C30.4027 25.0856 30.182 25.4072 29.9298 25.7099C29.6776 26.0125 29.4064 26.2837 29.1164 26.5233H27.395ZM29.5136 16.9894C28.9587 16.9894 28.5363 16.8317 28.2462 16.5164C27.9562 16.1886 27.8111 15.7976 27.8111 15.3436V15.268C27.8111 14.814 27.9562 14.4293 28.2462 14.114C28.5363 13.7862 28.9587 13.6222 29.5136 13.6222C30.0685 13.6222 30.491 13.7862 30.781 14.114C31.0711 14.4293 31.2161 14.814 31.2161 15.268V15.3436C31.2161 15.7976 31.0711 16.1886 30.781 16.5164C30.491 16.8317 30.0685 16.9894 29.5136 16.9894Z" fill="black"/>
</g>
<defs>
<clipPath id="clip0">
<rect width="32" height="32" fill="white"/>
</clipPath>
</defs>
</svg>
