<svg width="24" height="24" viewBox="0 0 24 24" fill="none" xmlns="http://www.w3.org/2000/svg">
<path d="M16.24 21.9999C15.9748 21.9999 15.7204 21.8945 15.5329 21.707C15.3453 21.5195 15.24 21.2651 15.24 20.9999V18.3999C15.2711 18.1008 15.2391 17.7986 15.146 17.5126C15.053 17.2267 14.9011 16.9635 14.7 16.7399C14.5755 16.6049 14.4906 16.4382 14.4546 16.2581C14.4186 16.078 14.4329 15.8915 14.4959 15.7189C14.5589 15.5464 14.6682 15.3946 14.8118 15.2801C14.9554 15.1656 15.1278 15.0929 15.31 15.0699C17.75 14.7799 20 13.9999 20 9.7699C20.0008 8.97998 19.7676 8.20751 19.33 7.5499C18.9261 6.94453 18.7787 6.20377 18.92 5.4899C19.0101 5.02422 19.0101 4.54558 18.92 4.0799C18.1712 4.33308 17.4662 4.70078 16.83 5.1699C16.7097 5.25532 16.572 5.31306 16.4268 5.33899C16.2816 5.36493 16.1324 5.35841 15.99 5.3199C14.1853 4.80996 12.2747 4.80996 10.47 5.3199C10.3276 5.35841 10.1784 5.36493 10.0332 5.33899C9.88796 5.31306 9.75027 5.25532 9.62999 5.1699C8.98993 4.69534 8.27742 4.32727 7.51999 4.0799C7.42489 4.54509 7.42489 5.02471 7.51999 5.4899C7.65107 6.21276 7.49695 6.95828 7.08999 7.5699C6.65425 8.23213 6.42139 9.00718 6.41999 9.7999C6.41999 13.6899 8.29999 14.7299 11.12 15.0899C11.3045 15.1128 11.479 15.1867 11.6239 15.3033C11.7687 15.4199 11.8782 15.5745 11.94 15.7499C11.9981 15.9201 12.0093 16.1028 11.9724 16.2787C11.9354 16.4547 11.8517 16.6175 11.73 16.7499C11.5355 16.9578 11.3862 17.2038 11.2915 17.4723C11.1969 17.7408 11.1589 18.026 11.18 18.3099V20.9999C11.18 21.2651 11.0746 21.5195 10.8871 21.707C10.6996 21.8945 10.4452 21.9999 10.18 21.9999C9.91477 21.9999 9.66042 21.8945 9.47288 21.707C9.28535 21.5195 9.17999 21.2651 9.17999 20.9999V20.4299C8.19735 20.5429 7.20202 20.4112 6.28257 20.0466C5.36312 19.682 4.54809 19.0957 3.90999 18.3399C3.58199 17.9764 3.18847 17.6778 2.74999 17.4599C2.62261 17.4271 2.50294 17.3695 2.39782 17.2904C2.29269 17.2113 2.20418 17.1123 2.13732 16.999C2.07046 16.8857 2.02657 16.7604 2.00816 16.6301C1.98974 16.4999 1.99716 16.3673 2.02999 16.2399C2.06282 16.1125 2.12042 15.9929 2.1995 15.8877C2.27858 15.7826 2.37759 15.6941 2.49087 15.6272C2.60416 15.5604 2.72951 15.5165 2.85976 15.4981C2.99001 15.4797 3.12261 15.4871 3.24999 15.5199C4.01924 15.8001 4.70659 16.2675 5.24999 16.8799C6.24999 17.8799 7.24999 18.7599 9.14999 18.3999C9.11658 17.863 9.1949 17.325 9.37999 16.8199C7.31999 16.2999 4.37999 14.8199 4.37999 9.8199C4.37735 8.63553 4.7253 7.47688 5.37999 6.4899C5.50159 6.30771 5.54816 6.0856 5.50999 5.8699C5.30792 4.79048 5.42253 3.67564 5.83999 2.6599C5.89671 2.52447 5.98256 2.40318 6.09145 2.30467C6.20033 2.20616 6.32957 2.13283 6.46999 2.0899C6.80999 1.9899 8.02999 1.7899 10.34 3.2899C12.21 2.83991 14.16 2.83991 16.03 3.2899C18.34 1.7899 19.56 1.9799 19.89 2.0899C20.0304 2.13283 20.1596 2.20616 20.2685 2.30467C20.3774 2.40318 20.4633 2.52447 20.52 2.6599C20.9383 3.67894 21.0529 4.79721 20.85 5.8799C20.8295 5.97746 20.8287 6.07811 20.8476 6.17598C20.8665 6.27385 20.9047 6.36697 20.96 6.4499C21.6166 7.43971 21.9646 8.60213 21.96 9.7899C21.96 14.8599 19.04 16.3299 16.96 16.7899C17.1432 17.3265 17.218 17.8942 17.18 18.4599V20.9999C17.1804 21.255 17.0834 21.5007 16.9086 21.6866C16.7339 21.8725 16.4947 21.9846 16.24 21.9999Z" fill="black"/>
</svg>
