<svg width="24" height="19" viewBox="0 0 24 19" fill="none" xmlns="http://www.w3.org/2000/svg">
<path d="M10.71 8.1387V5.44294L12.3743 3.74076C12.9795 3.13229 13.093 2.16181 12.6693 1.407C12.5079 1.11394 12.273 0.869724 11.9886 0.699239C11.7042 0.528754 11.3805 0.438101 11.0504 0.436523C10.8916 0.436523 10.71 0.45963 10.5663 0.505843C9.74925 0.729206 9.197 1.49942 9.197 2.36207V4.85757L6.82159 7.29916C6.20497 7.9397 5.78666 8.75048 5.61855 9.63089C5.45045 10.5113 5.53995 11.4226 5.87596 12.2517C6.45847 13.7151 7.72939 14.7241 9.197 14.9859V15.4558C9.197 15.656 9.02301 15.8409 8.81875 15.8409H7.684V17.3813H8.81875C9.84003 17.3813 10.71 16.5264 10.71 15.4558V15.0707C12.2457 15.0707 13.857 13.5918 13.857 11.4121C13.857 9.64063 12.4046 8.1387 10.71 8.1387ZM10.71 2.36207C10.71 2.18492 10.7932 2.04628 10.9521 2.00007C11.1185 1.95385 11.2925 2.02317 11.3757 2.17722C11.4185 2.25119 11.4358 2.33761 11.4248 2.42273C11.4139 2.50786 11.3753 2.58681 11.3152 2.64705L10.71 3.30944V2.36207ZM9.197 8.52381C8.46319 9.01675 7.91095 9.86399 7.71426 10.6496L9.197 11.0501V13.3993C8.7633 13.2809 8.36226 13.0622 8.02506 12.7603C7.68786 12.4584 7.42359 12.0814 7.25279 11.6586C6.80646 10.5341 7.04854 9.25552 7.88069 8.39287L9.197 6.98338V8.52381ZM10.71 13.5302V9.63293C11.5951 9.63293 12.3592 10.4802 12.3592 11.4121C12.3592 12.76 11.3984 13.5302 10.71 13.5302Z" fill="black"/>
<path d="M4.466 17.184C3.99 16.96 3.514 16.6473 3.038 16.246C2.57133 15.8447 2.14667 15.3687 1.764 14.818C1.39067 14.258 1.08733 13.628 0.854 12.928C0.620667 12.2187 0.504 11.4533 0.504 10.632C0.504 9.81067 0.620667 9.05 0.854 8.35C1.08733 7.64067 1.39067 7.01067 1.764 6.46C2.14667 5.9 2.57133 5.41933 3.038 5.018C3.514 4.61667 3.99 4.304 4.466 4.08L4.998 4.822C4.62467 5.102 4.298 5.438 4.018 5.83C3.738 6.222 3.50467 6.65133 3.318 7.118C3.13133 7.57533 2.99133 8.06067 2.898 8.574C2.80467 9.08733 2.758 9.60067 2.758 10.114V11.15C2.758 11.6633 2.80467 12.1767 2.898 12.69C2.99133 13.2033 3.13133 13.6933 3.318 14.16C3.50467 14.6173 3.738 15.042 4.018 15.434C4.298 15.826 4.62467 16.162 4.998 16.442L4.466 17.184ZM14.7103 16.442C15.0836 16.162 15.4103 15.826 15.6903 15.434C15.9703 15.042 16.2036 14.6173 16.3903 14.16C16.5769 13.6933 16.7169 13.2033 16.8103 12.69C16.9036 12.1767 16.9503 11.6633 16.9503 11.15V10.114C16.9503 9.60067 16.9036 9.08733 16.8103 8.574C16.7169 8.06067 16.5769 7.57533 16.3903 7.118C16.2036 6.65133 15.9703 6.222 15.6903 5.83C15.4103 5.438 15.0836 5.102 14.7103 4.822L15.2423 4.08C15.7183 4.304 16.1896 4.61667 16.6563 5.018C17.1323 5.41933 17.5569 5.9 17.9303 6.46C18.3129 7.01067 18.6209 7.64067 18.8543 8.35C19.0876 9.05 19.2043 9.81067 19.2043 10.632C19.2043 11.4533 19.0876 12.2187 18.8543 12.928C18.6209 13.628 18.3129 14.258 17.9303 14.818C17.5569 15.3687 17.1323 15.8447 16.6563 16.246C16.1896 16.6473 15.7183 16.96 15.2423 17.184L14.7103 16.442ZM20.2748 17.044C20.6668 16.7173 20.9888 16.4093 21.2408 16.12C21.4928 15.8307 21.6748 15.5133 21.7868 15.168H21.7588C21.4508 15.168 21.1755 15.0607 20.9328 14.846C20.6995 14.6313 20.5828 14.3327 20.5828 13.95V13.894C20.5828 13.558 20.6902 13.2733 20.9048 13.04C21.1195 12.7973 21.4322 12.676 21.8428 12.676C22.2535 12.676 22.5662 12.7973 22.7808 13.04C22.9955 13.2733 23.1028 13.558 23.1028 13.894V14.104C23.1028 14.384 23.0608 14.664 22.9768 14.944C22.8928 15.2147 22.7808 15.476 22.6408 15.728C22.5008 15.98 22.3375 16.218 22.1508 16.442C21.9642 16.666 21.7635 16.8667 21.5488 17.044H20.2748ZM21.8428 9.988C21.4322 9.988 21.1195 9.87133 20.9048 9.638C20.6902 9.39533 20.5828 9.106 20.5828 8.77V8.714C20.5828 8.378 20.6902 8.09333 20.9048 7.86C21.1195 7.61733 21.4322 7.496 21.8428 7.496C22.2535 7.496 22.5662 7.61733 22.7808 7.86C22.9955 8.09333 23.1028 8.378 23.1028 8.714V8.77C23.1028 9.106 22.9955 9.39533 22.7808 9.638C22.5662 9.87133 22.2535 9.988 21.8428 9.988Z" fill="black"/>
</svg>
